<svg xmlns="http://www.w3.org/2000/svg" xmlns:xlink="http://www.w3.org/1999/xlink" width="360" height="640" viewBox="0 0 360 640">
  <defs>
    <style>
      .cls-1 {
        clip-path: url(#clip-회원가입_1);
      }

      .cls-10, .cls-2 {
        fill: #fff;
      }

      .cls-2 {
        stroke: #707070;
      }

      .cls-3, .cls-4, .cls-6 {
        font-size: 12px;
      }

      .cls-3 {
        font-family: NanumGothic, Nanum Gothic;
        letter-spacing: 0.012em;
      }

      .cls-4, .cls-5, .cls-6 {
        font-family: NanumGothicBold, Nanum Gothic;
      }

      .cls-5 {
        font-size: 18px;
      }

      .cls-6 {
        fill: #5d5d5d;
      }

      .cls-7 {
        font-family: NanumGothicBold, NanumGothic;
      }

      .cls-8 {
        stroke: none;
      }

      .cls-9 {
        fill: none;
      }
    </style>
    <clipPath id="clip-회원가입_1">
      <rect width="360" height="640"/>
    </clipPath>
  </defs>
  <g id="회원가입_1" data-name="회원가입 – 1" class="cls-1">
    <rect class="cls-10" width="360" height="640"/>
    <g id="그룹_8" data-name="그룹 8" transform="translate(277.947 346.813)">
      <g id="사각형_9" data-name="사각형 9" class="cls-2" transform="translate(0.053 0.187)">
        <rect class="cls-8" width="60" height="44" rx="7"/>
        <rect class="cls-9" x="0.5" y="0.5" width="59" height="43" rx="6.5"/>
      </g>
    </g>
    <text id="확인" class="cls-3" transform="translate(297 372)"><tspan x="0" y="0">확인</tspan></text>
    <g id="사각형_21" data-name="사각형 21" class="cls-2" transform="translate(21 413)">
      <rect class="cls-8" width="317" height="24"/>
      <rect class="cls-9" x="0.5" y="0.5" width="316" height="23"/>
    </g>
    <text id="회원가입" class="cls-4" transform="translate(160 429)"><tspan x="0" y="0">회원가입</tspan></text>
    <text id="회원가입-2" data-name="회원가입" class="cls-5" transform="translate(21 91)"><tspan x="0" y="0">회원가입</tspan></text>
    <g id="그룹_5" data-name="그룹 5" transform="translate(21 111)">
      <g id="사각형_9-2" data-name="사각형 9" class="cls-2">
        <rect class="cls-8" width="250" height="44" rx="7"/>
        <rect class="cls-9" x="0.5" y="0.5" width="249" height="43" rx="6.5"/>
      </g>
    </g>
    <text id="아이디" class="cls-6" transform="translate(26 127)"><tspan x="0" y="0">아이디</tspan></text>
    <g id="사각형_10" data-name="사각형 10" class="cls-2" transform="translate(21 170)">
      <rect class="cls-8" width="250" height="44" rx="7"/>
      <rect class="cls-9" x="0.5" y="0.5" width="249" height="43" rx="6.5"/>
    </g>
    <text id="비밀번호_" data-name="비밀번호 " class="cls-6" transform="translate(25 185)"><tspan x="0" y="0">비밀번호 </tspan></text>
    <g id="사각형_11" data-name="사각형 11" class="cls-2" transform="translate(21 229)">
      <rect class="cls-8" width="250" height="44" rx="7"/>
      <rect class="cls-9" x="0.5" y="0.5" width="249" height="43" rx="6.5"/>
    </g>
    <text id="비밀번호_확인_" data-name="비밀번호 확인 " class="cls-6" transform="translate(25 244)"><tspan x="0" y="0">비밀번호 확인 </tspan></text>
    <g id="사각형_14" data-name="사각형 14" class="cls-2" transform="translate(21 288)">
      <rect class="cls-8" width="250" height="44" rx="7"/>
      <rect class="cls-9" x="0.5" y="0.5" width="249" height="43" rx="6.5"/>
    </g>
    <text id="이메일" class="cls-6" transform="translate(25 303)"><tspan x="0" y="0">이메일</tspan></text>
    <g id="사각형_16" data-name="사각형 16" class="cls-2" transform="translate(21 347)">
      <rect class="cls-8" width="250" height="44" rx="7"/>
      <rect class="cls-9" x="0.5" y="0.5" width="249" height="43" rx="6.5"/>
    </g>
    <text id="인증번호_입력_" data-name="인증번호 입력

" class="cls-6" transform="translate(25 362)"><tspan x="0" y="0">인증번호 입력</tspan><tspan x="0" y="14"></tspan><tspan class="cls-7"><tspan x="0" y="28"></tspan></tspan></text>
    <g id="그룹_5-2" data-name="그룹 5" transform="translate(279.06 111)">
      <g id="사각형_9-3" data-name="사각형 9" class="cls-2" transform="translate(-0.06)">
        <rect class="cls-8" width="60" height="44" rx="7"/>
        <rect class="cls-9" x="0.5" y="0.5" width="59" height="43" rx="6.5"/>
      </g>
    </g>
    <g id="그룹_9" data-name="그룹 9" transform="translate(278.06 288)">
      <g id="사각형_9-4" data-name="사각형 9" class="cls-2" transform="translate(-0.06)">
        <rect class="cls-8" width="60" height="44" rx="7"/>
        <rect class="cls-9" x="0.5" y="0.5" width="59" height="43" rx="6.5"/>
      </g>
    </g>
    <path id="중복확인" d="M10.884,6.757q.061,0,.122.043t.061.116v.413q0,.061-.061.109t-.122.049H6.117V8.971Q6.664,9,7.254,9.1t1.088.328q.5.225.821.59t.322.924q0,.62-.389,1.009t-.961.608q-.572.219-1.234.3t-1.21.079q-.365,0-.784-.036t-.839-.116q-.42-.079-.809-.225t-.687-.371q-.3-.225-.48-.529t-.182-.718q0-.547.322-.918t.821-.6q.5-.225,1.094-.328t1.131-.128V7.487H.547q-.073,0-.128-.049T.365,7.329V6.916q0-.073.055-.116t.128-.043ZM8.537,3.133q-.632.6-1.715,1.155.341.1.76.207t.857.219q.438.109.876.207t.815.17q.158.036.109.17l-.17.4q-.061.134-.219.1-.413-.073-.924-.195T7.886,5.3q-.529-.14-1.046-.286t-.955-.292q-.961.4-2.061.711t-2.244.5q-.109.024-.152-.018t-.067-.116l-.109-.365q-.049-.182.1-.195.839-.134,1.763-.389t1.782-.572q.857-.316,1.575-.663t1.143-.663q.195-.146.152-.231t-.213-.085H2.3q-.158,0-.158-.158V2.063q0-.146.158-.146H7.856q.936,0,1.107.322T8.537,3.133Zm.061,7.82q0-.4-.328-.638t-.79-.371q-.462-.134-.955-.176t-.833-.043q-.353,0-.845.043T3.9,9.944q-.456.134-.778.371t-.322.638q0,.389.322.632t.778.371q.456.128.949.17t.845.043q.341,0,.839-.043t.955-.17q.456-.128.784-.371T8.6,10.953ZM17.67,6.162V7.5h4.791q.061,0,.122.043t.061.116v.413q0,.061-.061.109t-.122.049H12.125q-.073,0-.128-.049t-.055-.109V7.657q0-.073.055-.116t.128-.043h4.706V6.162H14.618q-.292,0-.468-.036t-.274-.14q-.1-.1-.134-.268t-.036-.42V1.857q0-.061.049-.1t.109-.043h.523q.061,0,.1.049t.043.1V3.231h5.521V1.869q0-.061.043-.109t.1-.049h.523q.061,0,.109.043t.049.1V5.383q0,.462-.195.62t-.73.158ZM14.532,3.948v1.2q0,.182.061.237t.231.055h4.937q.17,0,.231-.055t.061-.237v-1.2ZM13.377,9.494q0-.073.061-.109t.122-.036h6.458q.572,0,.748.213t.176.711V12.8q0,.17-.17.17h-.5q-.17,0-.17-.17V10.333q0-.17-.055-.213t-.225-.043H13.56q-.061,0-.122-.043t-.061-.1ZM30.938,7.828q.109-.012.14.018t.043.091l.049.389q.012.073-.018.109t-.14.061q-.985.134-2.2.219T26.389,8.8H23.86q-.073,0-.128-.049t-.055-.109V8.278q0-.073.055-.109t.128-.036h2.1q.255,0,.517,0T27,8.12V7.293q-.5-.036-.906-.164T25.386,6.8q-.3-.2-.462-.468t-.164-.584q0-.353.2-.638t.553-.486q.353-.2.833-.31T27.4,4.2q.559,0,1.046.116t.839.316q.353.2.553.486t.2.626q0,.316-.164.584t-.456.468q-.292.2-.7.328t-.882.164v.8q.778-.036,1.538-.1T30.938,7.828Zm1.581,1.022q0,.17-.17.17h-.5q-.17,0-.17-.17V1.808q0-.17.17-.17h.5q.17,0,.17.17V5.566H34.2q.073,0,.128.043t.055.116v.413q0,.061-.055.109T34.2,6.3H32.519ZM25.2,9.773q0-.073.061-.109t.122-.036h6.214q.572,0,.748.213t.176.711V12.8q0,.17-.17.17h-.5q-.17,0-.17-.17V10.613q0-.17-.055-.213t-.225-.043H25.38q-.061,0-.122-.043t-.061-.1Zm4.013-4.025q0-.426-.511-.651t-1.3-.225q-.389,0-.724.055t-.578.164q-.243.109-.383.274t-.14.383q0,.207.14.371t.383.28q.243.116.578.176t.724.061q.79,0,1.3-.237T29.211,5.748Zm1.508-2.116q0,.158-.182.158H24.31q-.061,0-.116-.049T24.14,3.62V3.267q0-.073.055-.122T24.31,3.1h6.226q.182,0,.182.158ZM28.943,2.355q0,.17-.182.17H25.915q-.061,0-.116-.043t-.055-.116V2q0-.073.049-.122t.109-.049h2.858q.182,0,.182.17ZM44.522,9.567q0,.17-.17.17h-.5q-.17,0-.17-.17V1.808q0-.17.17-.17h.5q.17,0,.17.17Zm.365,2.919q0,.073-.061.109t-.122.036H38.611q-.572,0-.748-.213t-.176-.711V9.323q0-.17.17-.17h.5q.17,0,.17.17v2.323q0,.17.055.213t.225.043h5.9q.061,0,.122.043t.061.1ZM41.542,5.006q0,.632-.219,1.161t-.608.906q-.389.377-.918.59t-1.149.213q-.6,0-1.119-.207t-.906-.59q-.383-.383-.6-.906T35.8,5.006q0-.669.219-1.2t.6-.912q.383-.377.906-.572t1.119-.195q.559,0,1.082.195t.924.565q.4.371.645.906T41.542,5.006Zm-.851-.012q0-.511-.164-.906t-.444-.657q-.28-.261-.651-.4T38.648,2.9q-.426,0-.784.134t-.632.4q-.274.261-.426.657t-.152.906q0,.486.146.876t.413.663q.268.274.632.426t.8.152q.413,0,.784-.152t.651-.426q.28-.274.444-.663T40.691,4.994Z" transform="translate(286 124.386)"/>
    <path id="인증_메일_보내기" data-name="인증 메일 
보내기" d="M10.519,9.567q0,.17-.17.17h-.5q-.17,0-.17-.17V1.808q0-.17.17-.17h.5q.17,0,.17.17Zm.365,2.919q0,.073-.061.109t-.122.036H4.609q-.572,0-.748-.213t-.176-.711V9.323q0-.17.17-.17h.5q.17,0,.17.17v2.323q0,.17.055.213T4.8,11.9h5.9q.061,0,.122.043t.061.1ZM7.54,5.006q0,.632-.219,1.161t-.608.906q-.389.377-.918.59t-1.149.213q-.6,0-1.119-.207t-.906-.59q-.383-.383-.6-.906T1.8,5.006q0-.669.219-1.2t.6-.912q.383-.377.906-.572t1.119-.195q.559,0,1.082.195t.924.565q.4.371.645.906T7.54,5.006Zm-.851-.012q0-.511-.164-.906t-.444-.657q-.28-.261-.651-.4T4.646,2.9q-.426,0-.784.134t-.632.4q-.274.261-.426.657t-.152.906q0,.486.146.876t.413.663q.268.274.632.426t.8.152q.413,0,.784-.152t.651-.426q.28-.274.444-.663T6.689,4.994Zm15.1,5.849q0,.413-.182.724t-.486.547q-.3.237-.7.4t-.815.249q-.42.091-.839.134T18,12.935q-.341,0-.76-.043t-.839-.134q-.42-.091-.815-.249t-.7-.4q-.3-.237-.486-.547t-.182-.724q0-.4.182-.711t.486-.541q.3-.231.7-.389t.815-.255q.42-.1.833-.14T18,8.764q.353,0,.772.043t.845.134q.426.091.815.249t.693.389q.3.231.486.547T21.793,10.844Zm-.949-7.71q-.632.6-1.715,1.155.341.1.76.207t.857.219q.438.109.876.207t.815.17q.158.036.109.17l-.17.4q-.061.134-.219.1-.413-.073-.924-.195T20.193,5.3q-.529-.14-1.046-.286t-.955-.292q-.961.4-2.061.711t-2.244.5q-.109.024-.152-.018t-.067-.116l-.109-.365q-.049-.182.1-.195.839-.134,1.763-.389T17.2,4.289q.857-.316,1.575-.663t1.143-.663q.195-.146.152-.231t-.213-.085H14.605q-.158,0-.158-.158V2.063q0-.146.158-.146h5.558q.936,0,1.107.322T20.844,3.133Zm.061,7.722q0-.413-.328-.681t-.8-.42q-.468-.152-.961-.207T18,9.494q-.341,0-.833.055t-.949.207q-.456.152-.784.42t-.328.681q0,.413.328.675t.784.407q.456.146.949.2t.833.055q.328,0,.821-.055t.961-.2q.468-.146.8-.407T20.9,10.856ZM23.191,6.94q.061,0,.122.043t.061.116v.413q0,.061-.061.109t-.122.049H12.854q-.073,0-.128-.049t-.055-.109V7.1q0-.073.055-.116t.128-.043ZM28.36,3.474q0-.511.195-.687t.73-.176H32.19q.292,0,.468.036t.28.134q.1.1.14.268t.036.426V5.821h1.557V2.015q0-.17.17-.17H35.3q.17,0,.17.17v10.2q0,.17-.17.17h-.462q-.17,0-.17-.17V6.551H33.114V8.74q0,.511-.195.687t-.73.176H29.284q-.292,0-.468-.036t-.28-.14q-.1-.1-.14-.268t-.036-.42Zm1.131-.134q-.17,0-.231.067t-.061.249v4.9q0,.182.061.249t.231.067h2.493q.17,0,.231-.067t.061-.249v-4.9q0-.182-.061-.249t-.231-.067Zm8.136,9.34q0,.17-.17.17h-.462q-.17,0-.17-.17V1.808q0-.17.17-.17h.462q.17,0,.17.17ZM48.8,7.341q0,.17-.17.17h-.5q-.17,0-.17-.17V1.808q0-.17.17-.17h.5q.17,0,.17.17ZM45.786,4.556q0,.572-.225,1.052t-.614.833q-.389.353-.912.553t-1.119.2q-.584,0-1.088-.195T40.94,6.46q-.383-.347-.6-.833t-.219-1.07q0-.62.219-1.113t.6-.833q.383-.341.888-.523t1.088-.182q.547,0,1.064.182t.918.523q.4.341.645.833T45.786,4.556Zm-.851-.012q0-.45-.17-.8t-.45-.584q-.28-.231-.645-.353t-.754-.122q-.4,0-.76.116t-.62.347q-.261.231-.413.584t-.152.815q0,.438.146.784t.407.6q.261.249.614.377t.778.128q.389,0,.754-.128t.645-.371q.28-.243.45-.6T44.935,4.544Zm4.123,8.2q0,.061-.055.1t-.1.043H42.783q-.572,0-.748-.213t-.176-.724v-.912q0-.511.213-.687t.76-.176H47.7q.17,0,.219-.049t.049-.231V9.2q0-.182-.043-.231t-.213-.049H42q-.061,0-.116-.036t-.055-.1V8.351q0-.061.055-.1T42,8.217h5.837q.292,0,.474.043t.292.14q.109.1.152.274T48.8,9.1v.912q0,.511-.213.687t-.76.176H42.953q-.17,0-.213.049t-.043.231V11.9q0,.17.049.225t.219.055h5.922q.061,0,.116.036t.055.1ZM16.174,21.882v2.505h4.779q.061,0,.122.043t.061.116v.413q0,.061-.061.109t-.122.049H10.617q-.073,0-.128-.049t-.055-.109v-.413q0-.073.055-.116t.128-.043h4.718V21.882h-2.42q-.292,0-.468-.036t-.274-.14q-.1-.1-.134-.268T12,21.018v-4.56q0-.061.049-.1t.109-.043h.523q.061,0,.1.049t.043.1v1.934h5.849V16.47q0-.061.043-.109t.1-.049h.523q.061,0,.109.043t.049.1V21.1q0,.462-.195.62t-.73.158ZM12.83,19.109v1.763q0,.182.061.237t.231.055h5.266q.17,0,.231-.055t.061-.237V19.109Zm16.661,1.313h1.544V16q0-.17.17-.17h.462q.17,0,.17.17V26.868q0,.17-.17.17h-.462q-.17,0-.17-.17V21.152H29.491v5.254q0,.17-.17.17h-.462q-.17,0-.17-.17V16.2q0-.17.17-.17h.462q.17,0,.17.17Zm-5.643,2.165q0,.182.061.243t.231.073q1.034.036,1.9-.061t1.715-.292q.207-.049.243.146l.061.341q.036.17-.158.219-.766.207-1.806.322t-2.122.079q-.547-.024-.754-.261t-.207-.748V16.859q0-.17.17-.17h.5q.17,0,.17.17Zm19.166,4.281q0,.17-.17.17h-.5q-.17,0-.17-.17V16q0-.17.17-.17h.5q.17,0,.17.17Zm-3.259-9.255q-.061,1.046-.413,2.055T38.362,21.6q-.626.918-1.508,1.7t-2,1.38q-.158.085-.231-.036l-.268-.426q-.085-.146.049-.207,1.034-.535,1.83-1.222T37.6,21.3q.565-.8.894-1.69t.413-1.824q.024-.182-.049-.249t-.243-.067H34.744q-.146,0-.146-.158v-.426q0-.146.146-.146h4.1q.572,0,.754.213T39.754,17.613Z" transform="translate(280.987 297.705)"/>
  </g>
</svg>
